<svg xmlns="http://www.w3.org/2000/svg" width="500" height="500" viewBox="0 0 500 500">
    <defs>
        <radialGradient id="gA" cx="50%" cy="50%" r="50%">
            <stop offset="0%" stop-color="#7c4a03" stop-opacity="0.18" />
            <stop offset="100%" stop-color="#7c4a03" stop-opacity="0" />
        </radialGradient>
        <radialGradient id="gB" cx="50%" cy="50%" r="50%">
            <stop offset="0%" stop-color="#d4af37" stop-opacity="0.16" />
            <stop offset="100%" stop-color="#d4af37" stop-opacity="0" />
        </radialGradient>
        <radialGradient id="gC" cx="50%" cy="50%" r="50%">
            <stop offset="0%" stop-color="#8b3a0f" stop-opacity="0.13" />
            <stop offset="100%" stop-color="#8b3a0f" stop-opacity="0" />
        </radialGradient>
    </defs>

    <rect width="500" height="500" fill="#fdf6ec" />

    <circle cx="100" cy="120" r="170" fill="url(#gA)">
        <animate attributeName="r" values="150;185;150" dur="9s" repeatCount="indefinite" />
    </circle>
    <circle cx="410" cy="190" r="190" fill="url(#gB)">
        <animate attributeName="r" values="170;205;170" dur="10s" repeatCount="indefinite" />
    </circle>
    <circle cx="230" cy="440" r="200" fill="url(#gC)">
        <animate attributeName="r" values="180;215;180" dur="11s" repeatCount="indefinite" />
    </circle>

    <g opacity="0.18">
        <line x1="60" y1="0" x2="460" y2="500" stroke="#d4af37" stroke-width="28" />
        <line x1="110" y1="0" x2="500" y2="440" stroke="#d4af37" stroke-width="18" />
        <line x1="10" y1="0" x2="380" y2="500" stroke="#d4af37" stroke-width="12" />
        <line x1="160" y1="0" x2="500" y2="360" stroke="#d4af37" stroke-width="8" />
        <animate attributeName="opacity" values="0.14;0.22;0.14" dur="8s" repeatCount="indefinite" />
    </g>

    <g fill="#c8a96e" opacity="0.18">
        <circle cx="100" cy="100" r="1.5" />
        <circle cx="200" cy="100" r="1.5" />
        <circle cx="300" cy="100" r="1.5" />
        <circle cx="400" cy="100" r="1.5" />
        <circle cx="100" cy="200" r="1.5" />
        <circle cx="200" cy="200" r="1.5" />
        <circle cx="300" cy="200" r="1.5" />
        <circle cx="400" cy="200" r="1.5" />
        <circle cx="100" cy="300" r="1.5" />
        <circle cx="200" cy="300" r="1.5" />
        <circle cx="300" cy="300" r="1.5" />
        <circle cx="400" cy="300" r="1.5" />
        <circle cx="100" cy="400" r="1.5" />
        <circle cx="200" cy="400" r="1.5" />
        <circle cx="300" cy="400" r="1.5" />
        <circle cx="400" cy="400" r="1.5" />
        <circle cx="50" cy="150" r="1" />
        <circle cx="150" cy="150" r="1" />
        <circle cx="250" cy="150" r="1" />
        <circle cx="350" cy="150" r="1" />
        <circle cx="450" cy="150" r="1" />
        <circle cx="50" cy="250" r="1" />
        <circle cx="150" cy="250" r="1" />
        <circle cx="250" cy="250" r="1" />
        <circle cx="350" cy="250" r="1" />
        <circle cx="450" cy="250" r="1" />
        <circle cx="50" cy="350" r="1" />
        <circle cx="150" cy="350" r="1" />
        <circle cx="250" cy="350" r="1" />
        <circle cx="350" cy="350" r="1" />
        <circle cx="450" cy="350" r="1" />
        <circle cx="50" cy="450" r="1" />
        <circle cx="150" cy="450" r="1" />
        <circle cx="250" cy="450" r="1" />
        <circle cx="350" cy="450" r="1" />
        <circle cx="450" cy="450" r="1" />
    </g>

    <g fill="none" stroke="#c8872a" stroke-width="1.2" opacity="0.28" stroke-dasharray="5 4">
        <path d="M80 200 Q200 100 340 180">
            <animate attributeName="stroke-dashoffset" values="0;-27;0" dur="6s"
                repeatCount="indefinite" />
        </path>
        <path d="M150 380 Q280 280 420 340">
            <animate attributeName="stroke-dashoffset" values="0;-27;0" dur="7s"
                repeatCount="indefinite" />
        </path>
        <path d="M60 320 Q180 420 320 400">
            <animate attributeName="stroke-dashoffset" values="0;-27;0" dur="8s"
                repeatCount="indefinite" />
        </path>
        <path d="M200 60 Q310 160 430 100">
            <animate attributeName="stroke-dashoffset" values="0;-27;0" dur="5.5s"
                repeatCount="indefinite" />
        </path>
    </g>

    <g transform="translate(250 210)">
        <g>
            <animateTransform attributeName="transform" type="rotate" values="0 0 0;6 0 0;0 0 0"
                dur="18s" repeatCount="indefinite" />
            <circle cx="0" cy="0" r="54" stroke="#c8872a" stroke-width="1" fill="none"
                opacity="0.35" />
            <circle cx="0" cy="0" r="42" stroke="#d4af37" stroke-width="0.7" fill="none"
                opacity="0.3" />
            <line x1="0" y1="-54" x2="0" y2="54" stroke="#c8872a" stroke-width="0.8" opacity="0.4" />
            <line x1="-54" y1="0" x2="54" y2="0" stroke="#c8872a" stroke-width="0.8" opacity="0.4" />
            <line x1="-38" y1="-38" x2="38" y2="38" stroke="#d4af37" stroke-width="0.6"
                opacity="0.28" />
            <line x1="38" y1="-38" x2="-38" y2="38" stroke="#d4af37" stroke-width="0.6"
                opacity="0.28" />
            <polygon points="0,-54 -7,-36 0,-42 7,-36" fill="#c8872a" opacity="0.65" />
            <polygon points="0,54 -7,36 0,42 7,36" fill="#c8872a" opacity="0.35" />
            <circle cx="0" cy="0" r="8" fill="#d4af37" opacity="0.55" />
            <circle cx="0" cy="0" r="4" fill="#fdf6ec" opacity="0.9" />
        </g>
    </g>

    <g transform="translate(250 370)" fill="none">
        <g>
            <animateTransform attributeName="transform" type="translate" values="0 0;0 -6;0 0"
                dur="7s" repeatCount="indefinite" />
            <path d="M0 0 C-10 -4 -52 -6 -68 0 L-68 48 C-52 42 -10 40 0 44Z" fill="#e8d5b0"
                stroke="#c8a96e" stroke-width="0.9" opacity="0.75" />
            <path d="M0 0 C10 -4 52 -6 68 0 L68 48 C52 42 10 40 0 44Z" fill="#f0dfc0"
                stroke="#c8a96e" stroke-width="0.9" opacity="0.75" />
            <line x1="0" y1="0" x2="0" y2="44" stroke="#a07830" stroke-width="1.5" opacity="0.6" />
            <line x1="-58" y1="12" x2="-10" y2="11" stroke="#c8a96e" stroke-width="0.7"
                opacity="0.5" />
            <line x1="-58" y1="20" x2="-10" y2="19" stroke="#c8a96e" stroke-width="0.7"
                opacity="0.5" />
            <line x1="-58" y1="28" x2="-10" y2="27" stroke="#c8a96e" stroke-width="0.7"
                opacity="0.5" />
            <line x1="-58" y1="36" x2="-10" y2="35" stroke="#c8a96e" stroke-width="0.7"
                opacity="0.5" />
            <line x1="10" y1="11" x2="58" y2="12" stroke="#c8a96e" stroke-width="0.7" opacity="0.5" />
            <line x1="10" y1="19" x2="58" y2="20" stroke="#c8a96e" stroke-width="0.7" opacity="0.5" />
            <line x1="10" y1="27" x2="58" y2="28" stroke="#c8a96e" stroke-width="0.7" opacity="0.5" />
            <line x1="10" y1="35" x2="58" y2="36" stroke="#c8a96e" stroke-width="0.7" opacity="0.5" />
        </g>
    </g>

    <g transform="translate(390 110)">
        <g>
            <animateTransform attributeName="transform" type="translate" values="0 0;0 -8;0 0"
                dur="6s" repeatCount="indefinite" />
            <circle cx="0" cy="14" r="22" fill="#d4af37" opacity="0.12">
                <animate attributeName="r" values="18;26;18" dur="3s" repeatCount="indefinite" />
                <animate attributeName="opacity" values="0.10;0.20;0.10" dur="3s"
                    repeatCount="indefinite" />
            </circle>
            <rect x="-10" y="4" width="20" height="24" rx="3" fill="#e8c460" opacity="0.75"
                stroke="#a07830" stroke-width="0.8" />
            <rect x="-12" y="0" width="24" height="6" rx="2" fill="#a07830" opacity="0.8" />
            <rect x="-12" y="28" width="24" height="5" rx="2" fill="#a07830" opacity="0.8" />
            <path d="M-4 0 Q0 -10 4 0" stroke="#a07830" stroke-width="1.2" fill="none" opacity="0.7" />
            <ellipse cx="0" cy="8" rx="4" ry="6" fill="#f4c842" opacity="0.85">
                <animate attributeName="ry" values="5;7;5" dur="1.5s" repeatCount="indefinite" />
            </ellipse>
            <line x1="-4" y1="6" x2="-4" y2="26" stroke="#a07830" stroke-width="0.5" opacity="0.4" />
            <line x1="4" y1="6" x2="4" y2="26" stroke="#a07830" stroke-width="0.5" opacity="0.4" />
        </g>
    </g>

    <g transform="translate(108 118)">
        <g>
            <animateTransform attributeName="transform" type="rotate" values="-3 0 0;3 0 0;-3 0 0"
                dur="8s" repeatCount="indefinite" />
            <path d="M0 0 C-18 20 -28 55 -10 80 C-6 55 8 30 22 10 C14 18 4 35 0 0Z" fill="#e8d5a0"
                stroke="#c8a96e" stroke-width="0.7" opacity="0.80" />
            <line x1="0" y1="0" x2="-10" y2="80" stroke="#a07830" stroke-width="0.9" opacity="0.55" />
            <line x1="-3" y1="20" x2="-18" y2="28" stroke="#c8a96e" stroke-width="0.5"
                opacity="0.45" />
            <line x1="-5" y1="32" x2="-22" y2="40" stroke="#c8a96e" stroke-width="0.5"
                opacity="0.45" />
            <line x1="-7" y1="44" x2="-24" y2="52" stroke="#c8a96e" stroke-width="0.5"
                opacity="0.45" />
            <line x1="-3" y1="20" x2="10" y2="16" stroke="#c8a96e" stroke-width="0.5" opacity="0.45" />
            <line x1="-5" y1="32" x2="10" y2="28" stroke="#c8a96e" stroke-width="0.5" opacity="0.45" />
            <line x1="-7" y1="44" x2="8" y2="42" stroke="#c8a96e" stroke-width="0.5" opacity="0.45" />
        </g>
    </g>

    <g font-family="Georgia, 'Times New Roman', serif">
        <g transform="translate(42 75)">
            <g>
                <animateTransform attributeName="transform" type="translate" values="0 0;0 -9;0 0"
                    dur="7s" repeatCount="indefinite" />
                <text font-size="18" font-style="italic" fill="#7c4a03" opacity="0.62">wisdom</text>
            </g>
        </g>
        <g transform="translate(310 55)">
            <g>
                <animateTransform attributeName="transform" type="translate" values="0 0;0 -8;0 0"
                    dur="8s" repeatCount="indefinite" />
                <text font-size="16" font-style="italic" fill="#8b3a0f" opacity="0.55">guidance</text>
            </g>
        </g>
        <g transform="translate(30 310)">
            <g>
                <animateTransform attributeName="transform" type="translate" values="0 0;0 -7;0 0"
                    dur="6s" repeatCount="indefinite" />
                <text font-size="17" font-style="italic" fill="#7c4a03" opacity="0.58">growth</text>
            </g>
        </g>
        <g transform="translate(355 340)">
            <g>
                <animateTransform attributeName="transform" type="translate" values="0 0;0 -10;0 0"
                    dur="9s" repeatCount="indefinite" />
                <text font-size="15" font-style="italic" fill="#8b3a0f" opacity="0.52">insight</text>
            </g>
        </g>
        <g transform="translate(190 430)">
            <g>
                <animateTransform attributeName="transform" type="translate" values="0 0;0 -8;0 0"
                    dur="7.5s" repeatCount="indefinite" />
                <text font-size="16" font-style="italic" fill="#7c4a03" opacity="0.55">inspire</text>
            </g>
        </g>
        <g transform="translate(390 420)">
            <g>
                <animateTransform attributeName="transform" type="translate" values="0 0;0 -7;0 0"
                    dur="6.5s" repeatCount="indefinite" />
                <text font-size="14" font-style="italic" fill="#8b3a0f" opacity="0.50">trust</text>
            </g>
        </g>
        <g transform="translate(60 430)">
            <g>
                <animateTransform attributeName="transform" type="translate" values="0 0;0 -9;0 0"
                    dur="8.5s" repeatCount="indefinite" />
                <text font-size="14" font-style="italic" fill="#7c4a03" opacity="0.50">clarity</text>
            </g>
        </g>
    </g>

    <g fill="none">
        <g transform="translate(450 270)">
            <g>
                <animateTransform attributeName="transform" type="translate"
                    values="0 0;-10 -14;0 0" dur="13s" repeatCount="indefinite" />
                <circle cx="0" cy="0" r="11" stroke="#d4af37" stroke-width="1.2" fill="#d4af37"
                    fill-opacity="0.10" />
                <circle cx="0" cy="0" r="5" stroke="#d4af37" stroke-width="1" fill="none" />
                <line x1="11" y1="0" x2="28" y2="0" stroke="#d4af37" stroke-width="1.2" />
                <line x1="22" y1="0" x2="22" y2="6" stroke="#d4af37" stroke-width="1.2" />
                <line x1="27" y1="0" x2="27" y2="5" stroke="#d4af37" stroke-width="1.2" />
            </g>
        </g>
        <g transform="translate(118 168)">
            <g>
                <animateTransform attributeName="transform" type="translate" values="0 0;12 -12;0 0"
                    dur="15s" repeatCount="indefinite" />
                <polygon points="0,-16 14,0 0,16 -14,0" stroke="#c8872a" stroke-width="1.2"
                    fill="#c8872a" fill-opacity="0.10" />
            </g>
        </g>
        <g transform="translate(46 385)">
            <g>
                <animateTransform attributeName="transform" type="translate" values="0 0;9 -11;0 0"
                    dur="12s" repeatCount="indefinite" />
                <polygon points="0,-16 4,-6 14,-6 7,1 10,12 0,6 -10,12 -7,1 -14,-6 -4,-6"
                    stroke="#d4af37" stroke-width="1.1" fill="#d4af37" fill-opacity="0.12" />
            </g>
        </g>
    </g>

    <g>
        <circle cx="160" cy="172" r="2.5" fill="#c8872a" opacity="0.45">
            <animate attributeName="opacity" values="0.2;0.6;0.2" dur="4s" repeatCount="indefinite" />
        </circle>
        <circle cx="318" cy="108" r="3" fill="#d4af37" opacity="0.40">
            <animate attributeName="opacity" values="0.2;0.55;0.2" dur="4.5s"
                repeatCount="indefinite" />
        </circle>
        <circle cx="410" cy="275" r="2.5" fill="#c8872a" opacity="0.45">
            <animate attributeName="opacity" values="0.2;0.6;0.2" dur="3.8s"
                repeatCount="indefinite" />
        </circle>
        <circle cx="185" cy="415" r="3" fill="#d4af37" opacity="0.40">
            <animate attributeName="opacity" values="0.2;0.55;0.2" dur="5s" repeatCount="indefinite" />
        </circle>
        <circle cx="468" cy="215" r="2.5" fill="#c8872a" opacity="0.45">
            <animate attributeName="opacity" values="0.2;0.6;0.2" dur="4.2s"
                repeatCount="indefinite" />
        </circle>
        <circle cx="85" cy="332" r="2" fill="#c8872a" opacity="0.35">
            <animate attributeName="opacity" values="0.15;0.5;0.15" dur="4.7s"
                repeatCount="indefinite" />
        </circle>
        <circle cx="342" cy="448" r="2.5" fill="#d4af37" opacity="0.45">
            <animate attributeName="opacity" values="0.2;0.6;0.2" dur="3.5s"
                repeatCount="indefinite" />
        </circle>
    </g>

    <path d="M0 460 Q125 445 250 458 T500 448 V500 H0Z" fill="#e8d0a0" opacity="0.40" />
    <path d="M0 475 Q145 462 290 475 T500 466 V500 H0Z" fill="#d4b87a" opacity="0.45" />
    <path d="M0 488 Q155 478 315 488 T500 480 V500 H0Z" fill="#c8a050" opacity="0.50" />
</svg>