<svg xmlns="http://www.w3.org/2000/svg" width="500" height="500" viewBox="0 0 500 500">
    <defs>
        <radialGradient id="gA" cx="50%" cy="50%" r="50%">
            <stop offset="0%" stop-color="#00b4d8" stop-opacity="0.16" />
            <stop offset="100%" stop-color="#00b4d8" stop-opacity="0" />
        </radialGradient>
        <radialGradient id="gB" cx="50%" cy="50%" r="50%">
            <stop offset="0%" stop-color="#0077b6" stop-opacity="0.14" />
            <stop offset="100%" stop-color="#0077b6" stop-opacity="0" />
        </radialGradient>
        <radialGradient id="gC" cx="50%" cy="50%" r="50%">
            <stop offset="0%" stop-color="#48cae4" stop-opacity="0.12" />
            <stop offset="100%" stop-color="#48cae4" stop-opacity="0" />
        </radialGradient>
    </defs>

    <rect width="500" height="500" fill="#0a0f1e" />

    <circle cx="100" cy="120" r="170" fill="url(#gA)">
        <animate attributeName="r" values="150;190;150" dur="9s" repeatCount="indefinite" />
    </circle>
    <circle cx="420" cy="200" r="190" fill="url(#gB)">
        <animate attributeName="r" values="170;210;170" dur="10s" repeatCount="indefinite" />
    </circle>
    <circle cx="240" cy="440" r="200" fill="url(#gC)">
        <animate attributeName="r" values="180;220;180" dur="11s" repeatCount="indefinite" />
    </circle>

    <g stroke="#1a2a4a" stroke-width="0.6" opacity="0.7">
        <line x1="0" y1="100" x2="500" y2="100" />
        <line x1="0" y1="200" x2="500" y2="200" />
        <line x1="0" y1="300" x2="500" y2="300" />
        <line x1="0" y1="400" x2="500" y2="400" />
        <line x1="100" y1="0" x2="100" y2="500" />
        <line x1="200" y1="0" x2="200" y2="500" />
        <line x1="300" y1="0" x2="300" y2="500" />
        <line x1="400" y1="0" x2="400" y2="500" />
    </g>

    <g fill="#1e3a5f" opacity="0.8">
        <circle cx="100" cy="100" r="2.5" />
        <circle cx="200" cy="100" r="2.5" />
        <circle cx="300" cy="100" r="2.5" />
        <circle cx="400" cy="100" r="2.5" />
        <circle cx="100" cy="200" r="2.5" />
        <circle cx="200" cy="200" r="2.5" />
        <circle cx="300" cy="200" r="2.5" />
        <circle cx="400" cy="200" r="2.5" />
        <circle cx="100" cy="300" r="2.5" />
        <circle cx="200" cy="300" r="2.5" />
        <circle cx="300" cy="300" r="2.5" />
        <circle cx="400" cy="300" r="2.5" />
        <circle cx="100" cy="400" r="2.5" />
        <circle cx="200" cy="400" r="2.5" />
        <circle cx="300" cy="400" r="2.5" />
        <circle cx="400" cy="400" r="2.5" />
    </g>

    <g fill="none" stroke="#00b4d8" stroke-width="1" opacity="0.22">
        <path d="M0 150 L80 150 L80 100 L180 100" />
        <path d="M500 250 L420 250 L420 300 L320 300 L320 350 L220 350" />
        <path d="M0 380 L60 380 L60 300 L160 300" />
        <path d="M500 80 L440 80 L440 200 L380 200 L380 300" />
        <path d="M120 500 L120 420 L200 420 L200 380 L300 380" />
        <path d="M350 0 L350 80 L280 80 L280 150 L200 150" />
        <path d="M460 500 L460 440 L380 440 L380 400" />
        <path d="M0 50 L50 50 L50 150" />
    </g>

    <g fill="none" stroke="#48cae4" stroke-width="2" opacity="0.55" stroke-dasharray="8 80">
        <path d="M0 150 L80 150 L80 100 L180 100">
            <animate attributeName="stroke-dashoffset" values="0;-88;0" dur="3s"
                repeatCount="indefinite" />
        </path>
        <path d="M500 250 L420 250 L420 300 L320 300 L320 350 L220 350">
            <animate attributeName="stroke-dashoffset" values="0;-88;0" dur="4s"
                repeatCount="indefinite" />
        </path>
        <path d="M350 0 L350 80 L280 80 L280 150 L200 150">
            <animate attributeName="stroke-dashoffset" values="0;-88;0" dur="3.5s"
                repeatCount="indefinite" />
        </path>
        <path d="M460 500 L460 440 L380 440 L380 400">
            <animate attributeName="stroke-dashoffset" values="0;-88;0" dur="2.8s"
                repeatCount="indefinite" />
        </path>
    </g>

    <g transform="translate(250 168)">
        <g>
            <animateTransform attributeName="transform" type="translate" values="0 0;0 -7;0 0"
                dur="6s" repeatCount="indefinite" />
            <line x1="0" y1="-68" x2="0" y2="-52" stroke="#48cae4" stroke-width="1.5" opacity="0.8" />
            <circle cx="0" cy="-72" r="4" fill="#48cae4" opacity="0.9">
                <animate attributeName="opacity" values="0.5;1;0.5" dur="1.8s"
                    repeatCount="indefinite" />
                <animate attributeName="r" values="3;5;3" dur="1.8s" repeatCount="indefinite" />
            </circle>
            <rect x="-40" y="-52" width="80" height="60" rx="6" fill="#0d2137" stroke="#00b4d8"
                stroke-width="1.2" opacity="0.92" />
            <rect x="-28" y="-38" width="20" height="14" rx="3" fill="#001f3f" stroke="#48cae4"
                stroke-width="0.8" />
            <rect x="-22" y="-34" width="8" height="6" rx="1" fill="#00b4d8" opacity="0.9">
                <animate attributeName="opacity" values="0.6;1;0.6" dur="3s"
                    repeatCount="indefinite" />
            </rect>
            <rect x="8" y="-38" width="20" height="14" rx="3" fill="#001f3f" stroke="#48cae4"
                stroke-width="0.8" />
            <rect x="14" y="-34" width="8" height="6" rx="1" fill="#00b4d8" opacity="0.9">
                <animate attributeName="opacity" values="1;0.6;1" dur="3s" repeatCount="indefinite" />
            </rect>
            <rect x="-22" y="-16" width="44" height="10" rx="2" fill="#001f3f" stroke="#48cae4"
                stroke-width="0.6" opacity="0.8" />
            <line x1="-14" y1="-16" x2="-14" y2="-6" stroke="#48cae4" stroke-width="0.6"
                opacity="0.5" />
            <line x1="-6" y1="-16" x2="-6" y2="-6" stroke="#48cae4" stroke-width="0.6" opacity="0.5" />
            <line x1="2" y1="-16" x2="2" y2="-6" stroke="#48cae4" stroke-width="0.6" opacity="0.5" />
            <line x1="10" y1="-16" x2="10" y2="-6" stroke="#48cae4" stroke-width="0.6" opacity="0.5" />
            <line x1="18" y1="-16" x2="18" y2="-6" stroke="#48cae4" stroke-width="0.6" opacity="0.5" />
            <rect x="-48" y="-30" width="10" height="18" rx="2" fill="#0d2137" stroke="#00b4d8"
                stroke-width="0.8" opacity="0.8" />
            <rect x="38" y="-30" width="10" height="18" rx="2" fill="#0d2137" stroke="#00b4d8"
                stroke-width="0.8" opacity="0.8" />
            <rect x="-10" y="8" width="20" height="10" rx="2" fill="#0d2137" stroke="#00b4d8"
                stroke-width="0.7" opacity="0.8" />
        </g>
    </g>

    <g transform="translate(250 260)">
        <g>
            <animateTransform attributeName="transform" type="translate" values="0 0;0 -5;0 0"
                dur="6s" repeatCount="indefinite" />
            <rect x="-52" y="0" width="104" height="80" rx="5" fill="#0d2137" stroke="#00b4d8"
                stroke-width="1.2" opacity="0.9" />
            <rect x="-36" y="10" width="72" height="46" rx="3" fill="#001f3f" stroke="#48cae4"
                stroke-width="0.7" opacity="0.85" />
            <rect x="-28" y="18" width="56" height="6" rx="3" fill="#00b4d8" opacity="0.35">
                <animate attributeName="opacity" values="0.2;0.55;0.2" dur="2s"
                    repeatCount="indefinite" />
            </rect>
            <rect x="-20" y="30" width="40" height="18" rx="2" fill="#002244" stroke="#48cae4"
                stroke-width="0.5" opacity="0.9" />
            <line x1="-14" y1="36" x2="2" y2="36" stroke="#48cae4" stroke-width="0.8" opacity="0.7" />
            <line x1="-14" y1="40" x2="8" y2="40" stroke="#48cae4" stroke-width="0.8" opacity="0.5" />
            <line x1="-14" y1="44" x2="-2" y2="44" stroke="#48cae4" stroke-width="0.8" opacity="0.6" />
            <circle cx="-58" cy="18" r="8" fill="#0d2137" stroke="#00b4d8" stroke-width="1"
                opacity="0.9" />
            <circle cx="-58" cy="18" r="3" fill="#48cae4" opacity="0.6" />
            <circle cx="58" cy="18" r="8" fill="#0d2137" stroke="#00b4d8" stroke-width="1"
                opacity="0.9" />
            <circle cx="58" cy="18" r="3" fill="#48cae4" opacity="0.6" />
            <rect x="-82" y="10" width="16" height="50" rx="4" fill="#0d2137" stroke="#00b4d8"
                stroke-width="0.9" opacity="0.85" />
            <rect x="66" y="10" width="16" height="50" rx="4" fill="#0d2137" stroke="#00b4d8"
                stroke-width="0.9" opacity="0.85" />
            <rect x="-84" y="60" width="20" height="14" rx="3" fill="#0d2137" stroke="#48cae4"
                stroke-width="0.8" opacity="0.8" />
            <rect x="64" y="60" width="20" height="14" rx="3" fill="#0d2137" stroke="#48cae4"
                stroke-width="0.8" opacity="0.8" />
        </g>
    </g>

    <g transform="translate(250 345)">
        <g>
            <animateTransform attributeName="transform" type="translate" values="0 0;0 -4;0 0"
                dur="6s" repeatCount="indefinite" />
            <rect x="-40" y="0" width="22" height="55" rx="4" fill="#0d2137" stroke="#00b4d8"
                stroke-width="0.9" opacity="0.85" />
            <rect x="18" y="0" width="22" height="55" rx="4" fill="#0d2137" stroke="#00b4d8"
                stroke-width="0.9" opacity="0.85" />
            <circle cx="-29" cy="28" r="5" fill="#001f3f" stroke="#48cae4" stroke-width="0.7"
                opacity="0.8" />
            <circle cx="29" cy="28" r="5" fill="#001f3f" stroke="#48cae4" stroke-width="0.7"
                opacity="0.8" />
            <rect x="-44" y="55" width="30" height="12" rx="3" fill="#0d2137" stroke="#00b4d8"
                stroke-width="0.8" opacity="0.85" />
            <rect x="14" y="55" width="30" height="12" rx="3" fill="#0d2137" stroke="#00b4d8"
                stroke-width="0.8" opacity="0.85" />
        </g>
    </g>

    <g transform="translate(98 295)">
        <g>
            <animateTransform attributeName="transform" type="rotate" values="0 0 0;360 0 0"
                dur="16s" repeatCount="indefinite" />
            <circle cx="0" cy="0" r="26" stroke="#00b4d8" stroke-width="1" fill="none"
                opacity="0.30" />
            <circle cx="0" cy="0" r="18" stroke="#00b4d8" stroke-width="0.8" fill="#0d2137"
                opacity="0.50" />
            <circle cx="0" cy="0" r="6" fill="#48cae4" opacity="0.40" />
            <rect x="-3" y="-30" width="6" height="8" rx="1" fill="#00b4d8" opacity="0.40" />
            <rect x="-3" y="22" width="6" height="8" rx="1" fill="#00b4d8" opacity="0.40" />
            <rect x="-30" y="-3" width="8" height="6" rx="1" fill="#00b4d8" opacity="0.40" />
            <rect x="22" y="-3" width="8" height="6" rx="1" fill="#00b4d8" opacity="0.40" />
            <rect x="-23" y="-23" width="6" height="6" rx="1" fill="#00b4d8" opacity="0.28"
                transform="rotate(45 -20 -20)" />
            <rect x="17" y="-23" width="6" height="6" rx="1" fill="#00b4d8" opacity="0.28"
                transform="rotate(45 20 -20)" />
            <rect x="-23" y="17" width="6" height="6" rx="1" fill="#00b4d8" opacity="0.28"
                transform="rotate(45 -20 20)" />
            <rect x="17" y="17" width="6" height="6" rx="1" fill="#00b4d8" opacity="0.28"
                transform="rotate(45 20 20)" />
        </g>
    </g>

    <g transform="translate(405 310)">
        <g>
            <animateTransform attributeName="transform" type="rotate" values="360 0 0;0 0 0"
                dur="12s" repeatCount="indefinite" />
            <circle cx="0" cy="0" r="20" stroke="#48cae4" stroke-width="0.8" fill="none"
                opacity="0.28" />
            <circle cx="0" cy="0" r="13" stroke="#48cae4" stroke-width="0.7" fill="#0d2137"
                opacity="0.50" />
            <circle cx="0" cy="0" r="4" fill="#48cae4" opacity="0.38" />
            <rect x="-2.5" y="-23" width="5" height="6" rx="1" fill="#48cae4" opacity="0.38" />
            <rect x="-2.5" y="17" width="5" height="6" rx="1" fill="#48cae4" opacity="0.38" />
            <rect x="-23" y="-2.5" width="6" height="5" rx="1" fill="#48cae4" opacity="0.38" />
            <rect x="17" y="-2.5" width="6" height="5" rx="1" fill="#48cae4" opacity="0.38" />
            <rect x="-17" y="-17" width="5" height="5" rx="1" fill="#48cae4" opacity="0.24"
                transform="rotate(45 -14 -14)" />
            <rect x="12" y="-17" width="5" height="5" rx="1" fill="#48cae4" opacity="0.24"
                transform="rotate(45 14 -14)" />
            <rect x="-17" y="12" width="5" height="5" rx="1" fill="#48cae4" opacity="0.24"
                transform="rotate(45 -14 14)" />
            <rect x="12" y="12" width="5" height="5" rx="1" fill="#48cae4" opacity="0.24"
                transform="rotate(45 14 14)" />
        </g>
    </g>

    <g font-family="'Courier New', monospace" fill="#48cae4">
        <g transform="translate(38 72)">
            <g>
                <animateTransform attributeName="transform" type="translate" values="0 0;0 -10;0 0"
                    dur="7s" repeatCount="indefinite" />
                <text font-size="14" opacity="0.45">01101</text>
            </g>
        </g>
        <g transform="translate(400 60)">
            <g>
                <animateTransform attributeName="transform" type="translate" values="0 0;0 -8;0 0"
                    dur="8s" repeatCount="indefinite" />
                <text font-size="13" opacity="0.40">10110</text>
            </g>
        </g>
        <g transform="translate(30 200)">
            <g>
                <animateTransform attributeName="transform" type="translate" values="0 0;0 -9;0 0"
                    dur="6s" repeatCount="indefinite" />
                <text font-size="12" opacity="0.38">11001</text>
            </g>
        </g>
        <g transform="translate(430 170)">
            <g>
                <animateTransform attributeName="transform" type="translate" values="0 0;0 -7;0 0"
                    dur="9s" repeatCount="indefinite" />
                <text font-size="13" opacity="0.38">00111</text>
            </g>
        </g>
        <g transform="translate(55 430)">
            <g>
                <animateTransform attributeName="transform" type="translate" values="0 0;0 -8;0 0"
                    dur="7.5s" repeatCount="indefinite" />
                <text font-size="12" opacity="0.35">10010</text>
            </g>
        </g>
        <g transform="translate(390 410)">
            <g>
                <animateTransform attributeName="transform" type="translate" values="0 0;0 -9;0 0"
                    dur="6.5s" repeatCount="indefinite" />
                <text font-size="12" opacity="0.35">01011</text>
            </g>
        </g>
        <g transform="translate(170 58)">
            <g>
                <animateTransform attributeName="transform" type="translate" values="0 0;0 -7;0 0"
                    dur="8.5s" repeatCount="indefinite" />
                <text font-size="12" fill="#00b4d8" opacity="0.42">AI</text>
            </g>
        </g>
        <g transform="translate(340 435)">
            <g>
                <animateTransform attributeName="transform" type="translate" values="0 0;0 -8;0 0"
                    dur="7s" repeatCount="indefinite" />
                <text font-size="11" fill="#00b4d8" opacity="0.38">SYS</text>
            </g>
        </g>
    </g>

    <g fill="none">
        <g transform="translate(448 110)">
            <g>
                <animateTransform attributeName="transform" type="translate"
                    values="0 0;-11 -15;0 0" dur="13s" repeatCount="indefinite" />
                <polygon points="0,-18 16,-9 16,9 0,18 -16,9 -16,-9" stroke="#00b4d8"
                    stroke-width="1.1" fill="#00b4d8" fill-opacity="0.08" />
                <circle cx="0" cy="0" r="4" fill="#48cae4" opacity="0.35" />
            </g>
        </g>
        <g transform="translate(55 148)">
            <g>
                <animateTransform attributeName="transform" type="translate" values="0 0;13 -12;0 0"
                    dur="15s" repeatCount="indefinite" />
                <polygon points="0,-14 12,0 0,14 -12,0" stroke="#48cae4" stroke-width="1.1"
                    fill="#48cae4" fill-opacity="0.09" />
            </g>
        </g>
        <g transform="translate(450 390)">
            <g>
                <animateTransform attributeName="transform" type="translate" values="0 0;-9 -11;0 0"
                    dur="12s" repeatCount="indefinite" />
                <circle cx="0" cy="0" r="16" stroke="#00b4d8" stroke-width="1" fill="none"
                    opacity="0.35" />
                <circle cx="0" cy="0" r="9" stroke="#48cae4" stroke-width="0.7" fill="none"
                    opacity="0.28" />
                <circle cx="0" cy="0" r="3" fill="#48cae4" opacity="0.45" />
            </g>
        </g>
    </g>

    <g>
        <circle cx="158" cy="174" r="2.5" fill="#00b4d8" opacity="0.45">
            <animate attributeName="opacity" values="0.2;0.7;0.2" dur="4s" repeatCount="indefinite" />
        </circle>
        <circle cx="316" cy="106" r="3" fill="#48cae4" opacity="0.40">
            <animate attributeName="opacity" values="0.2;0.6;0.2" dur="4.5s"
                repeatCount="indefinite" />
        </circle>
        <circle cx="412" cy="274" r="2.5" fill="#00b4d8" opacity="0.45">
            <animate attributeName="opacity" values="0.2;0.7;0.2" dur="3.8s"
                repeatCount="indefinite" />
        </circle>
        <circle cx="184" cy="414" r="3" fill="#48cae4" opacity="0.40">
            <animate attributeName="opacity" values="0.2;0.6;0.2" dur="5s" repeatCount="indefinite" />
        </circle>
        <circle cx="466" cy="214" r="2.5" fill="#00b4d8" opacity="0.45">
            <animate attributeName="opacity" values="0.2;0.7;0.2" dur="4.2s"
                repeatCount="indefinite" />
        </circle>
        <circle cx="84" cy="332" r="2" fill="#00b4d8" opacity="0.35">
            <animate attributeName="opacity" values="0.15;0.55;0.15" dur="4.7s"
                repeatCount="indefinite" />
        </circle>
        <circle cx="342" cy="448" r="2.5" fill="#48cae4" opacity="0.45">
            <animate attributeName="opacity" values="0.2;0.65;0.2" dur="3.5s"
                repeatCount="indefinite" />
        </circle>
    </g>

    <path d="M0 460 Q125 445 250 458 T500 448 V500 H0Z" fill="#0d2137" opacity="0.80" />
    <path d="M0 475 Q145 462 290 475 T500 466 V500 H0Z" fill="#0a1a2e" opacity="0.88" />
    <path d="M0 488 Q155 478 315 488 T500 480 V500 H0Z" fill="#091525" opacity="0.95" />
</svg>